<svg version="1.2" xmlns="http://www.w3.org/2000/svg" viewBox="0 0 1599 1600" width="1599" height="1600">
	<title>BT_logo_2019-svg</title>
	<style>
		.s0 { fill: #5514b4 } 
	</style>
	<g id="Layer">
		<path id="Layer" fill-rule="evenodd" class="s0" d="m799.5 1599.9c-442.1 0-799.5-357.3-799.5-799.5 0-442.1 357.4-799.5 799.5-799.5 442.1 0 799.5 357.4 799.5 799.5 0 442.2-357.4 799.5-799.5 799.5zm701.5-798.5c0-388.1-313.7-701.9-701.8-701.9-388.2 0-701.9 313.8-701.9 701.9 0 388.1 313.7 701.9 701.9 701.9 388.1 0 701.8-313.8 701.8-701.9z"/>
		<path id="Layer" fill-rule="evenodd" class="s0" d="m615.1 527.2c101 0 169.5 65.6 169.5 152.4 0 74.6-52.6 108.2-52.6 108.2 0 0 68.5 33.6 68.5 121.3 0 99.6-77.3 162.5-178 162.5h-221.5v-544.4zm-91.6 212.1h68.5c40.7 0 63.7-20.3 63.7-52.3 0-29.7-20.2-53.5-66.7-53.5h-65.5zm0 214.8h68.5c40.7 0 63.7-20.3 63.7-52.3 0-29.7-20.2-53.5-66.7-53.5h-65.5z"/>
		<path id="Layer" class="s0" d="m964.8 1069.8v-417.7h-122.4v-125.8h380.9v125.8h-127.7v417.7z"/>
	</g>
</svg>