<svg version="1.2" xmlns="http://www.w3.org/2000/svg" viewBox="0 0 1567 593" width="1567" height="593">
	<title>Dish_Network_2019-svg</title>
	<style>
		.s0 { fill: #ec1944 } 
	</style>
	<path id="path10" fill-rule="evenodd" class="s0" d="m1129.2 462.7c0 74.6-62.9 129.8-175.2 129.8-67.1 0-131.9-21.2-174.9-57.3-3.6-3.1-4.4-8.3-1.9-12.4l35.6-59.5c3.2-5.2 10.1-6.4 14.8-2.7 31.5 25 85.6 43 131.4 43 46.1 0 67.9-16.1 67.9-35.2 0-69.6-240.6-14.8-240.6-173.2 0-67.8 59.5-127.3 166-127.3 64.9 0 117.1 20.9 155.9 50 3.9 2.9 5 8.3 2.6 12.5l-31.4 62.4c-3.2 5.4-10.5 6.7-15.2 2.6-25.8-21.9-67.1-37.5-111.1-37.5-38.5 0-63.7 13-63.7 30.9 0 63.6 239.7 14.3 239.8 173.9zm-718-437.2v550.2c0 3.7-3.1 6.8-6.9 6.8h-93.6c-3.8 0-6.8-3.1-6.8-6.8v-38.3c-31.4 34.3-73.5 55.1-120.9 55.1-101 0-183-95-183-212.3 0-117.2 82-212.3 183.1-212.3 47.3 0 89.4 20.9 120.8 55.2v-197.5c0-3.8 3-6.9 6.8-6.9h93.7c3.7 0 6.8 3.1 6.8 6.8zm-107.3 355.6v-1.8c-0.4-67.6-44.3-122.3-98.4-122.3-54.3 0-98.3 55.1-98.3 123.2 0 68 44 123.2 98.3 123.2 54.1 0 98-54.7 98.4-122.3zm1262.9-32.5v227.1c0 3.7-3 6.8-6.8 6.8h-93.7c-3.7 0-6.8-3.1-6.8-6.8l-0.1-220.6c0-69.4-36.1-97.6-82.1-97.6-46 0-84.1 29.7-84.2 82.9v235.3c0 3.7-3 6.8-6.8 6.8h-93.6c-3.8 0-6.9-3.1-6.9-6.8v-550.2c0-3.7 3.1-6.8 6.9-6.8h93.6c3.8 0 6.8 3.1 6.8 6.8v197.1c25-33.9 63.1-54.7 112.6-54.7 89.4 0 161.1 55.9 161.1 180.7z"/>
	<path id="path16" fill-rule="evenodd" class="s0" d="m596.3 126.7c-35.1 0-63.4-28.3-63.4-63.3 0-35.1 28.3-63.4 63.4-63.4 35 0 63.4 28.3 63.4 63.4 0 35-28.4 63.3-63.4 63.3zm130.6 361.8c-14.5 59.7-66.9 104-129.3 104.3h-0.8c-62.5-0.3-114.9-44.6-129.4-104.3-1.5-6 2.3-12.9 9.3-9 42.8 24.9 88.8 31.5 120.5 31.5 31.6 0 77.6-6.6 120.4-31.5 7.1-3.9 10.8 3 9.3 9zm-27.3-152.8c-11.5 47.2-52.8 82.2-102.1 82.5h-0.6c-49.4-0.3-90.7-35.3-102.2-82.5-1.1-4.7 1.8-10.1 7.4-7 33.8 19.6 70.1 24.8 95.1 24.9 25-0.1 61.2-5.3 95.1-24.9 5.5-3.1 8.5 2.3 7.3 7zm-29.1-130.5c-8.2 33.8-37.8 58.8-73.1 59h-0.4c-35.4-0.2-65-25.2-73.2-59-0.8-3.4 1.3-7.3 5.3-5 24.2 14 50.2 17.7 68.1 17.7 17.9 0 43.9-3.7 68.1-17.7 4-2.3 6.1 1.6 5.2 5z"/>
</svg>