<svg version="1.2" xmlns="http://www.w3.org/2000/svg" viewBox="0 0 1532 248" width="1532" height="248">
	<title>logo (10)</title>
	<style>
		.s0 { fill: #ff6600 } 
		.s1 { fill: #00babd } 
	</style>
	<g id="surface1">
		<path class="s0" d="m642 142.3c-0.8-9.4-4.2-17.7-10.2-24.7-5.9-6.8-14.3-12-24.8-15.6-10.3-3.5-26.4-5.3-40.9-5.3-13.6 0-25.5 1.8-35.4 5.4-10.2 3.7-18.2 9.1-23.8 16-5.7 7.2-8.6 15.7-8.6 25.4v0.2c0 7.9 2 13.6 5.8 19.5 3.9 5.8 9.5 10.6 17 14.2 7.1 3.4 16.1 5.9 26.7 7.3l37 4c11.4 1.3 16.6 3.6 18.9 5.2 2.8 1.9 4.2 6 4.2 9.9v0.2c0 3.3-1.1 6-3.4 8.3-2.5 2.6-6.5 4.6-11.7 6.1-5.6 1.5-12.6 2.3-20.8 2.3-13.8 0-20.9-1.7-28.2-5.1-6.7-3.1-10.6-7.5-11.9-13.3l-0.8-3.1h-37.4l0.6 4.7c1.2 9.8 5.1 15.8 11.6 22.8 6.4 6.8 15.2 12.1 26.3 15.6 9.5 3 20.8 4.7 33.7 5q2.7 0.1 5.6 0.1c1.7 0 7 0 8.7-0.1 12.1-0.4 22.8-2.2 31.9-5.3 10.6-3.8 18.9-9.3 24.7-16.3 6-7.3 9-13.6 9-23.4v-0.2c0-12.3-4-20.5-12.1-27.3-7.7-6.5-20.2-10.9-37.1-13.1l-39.7-4.1c-5.9-0.7-10.7-1.7-14.3-3.1-3.2-1.3-5.5-2.8-6.8-4.6-1.3-1.7-1.9-5.1-1.9-7.5v-0.1c0-3.2 1-7.3 3.2-9.6 2.3-2.5 6-4.5 10.9-5.9 5.2-1.5 10.6-2.3 18.4-2.3 12.1 0 21.8 1.8 28.8 5.3 6.4 3.3 9.8 8.9 10.7 14.4l0.4 3.2h36.1z"/>
		<path class="s0" d="m808.4 142.3c-0.8-9.4-4.2-17.7-10.2-24.7-5.9-6.8-14.3-12-24.8-15.6-10.3-3.5-26.4-5.3-40.9-5.3-13.6 0-25.5 1.8-35.4 5.4-10.2 3.7-18.2 9.1-23.8 16-5.7 7.2-8.6 15.7-8.6 25.4v0.2c0 7.9 1.9 13.6 5.8 19.5 3.8 5.8 9.5 10.6 16.9 14.2 7.2 3.4 16.2 5.9 26.8 7.3l37 4c11.4 1.3 16.5 3.6 18.9 5.2 2.8 1.9 4.1 6 4.1 9.9v0.2c0 3.3-1 6-3.3 8.3-2.5 2.6-6.5 4.6-11.7 6.1-5.7 1.5-12.6 2.3-20.8 2.3-13.8 0-21-1.7-28.2-5.1-6.7-3.1-10.6-7.5-11.9-13.3l-0.8-3.1h-37.4l0.6 4.7c1.2 9.8 5.1 15.8 11.6 22.8 6.4 6.8 15.2 12.1 26.3 15.6 9.5 3 20.8 4.7 33.7 5q2.7 0.1 5.5 0.1c1.8 0 7.1 0 8.8-0.1 12.1-0.4 22.8-2.2 31.9-5.3 10.6-3.8 18.9-9.3 24.7-16.3 6-7.3 9-13.6 9-23.4v-0.2c0-12.3-4.1-20.5-12.1-27.3-7.7-6.5-20.2-10.9-37.1-13.1l-39.7-4.1c-5.9-0.7-10.7-1.7-14.3-3.1-3.2-1.3-5.5-2.8-6.9-4.6-1.2-1.7-1.8-5.1-1.8-7.5v-0.1c0-3.2 1-7.3 3.2-9.6 2.3-2.5 6-4.5 10.8-5.9 5.2-1.5 10.7-2.3 18.4-2.3 12.2 0 21.8 1.8 28.9 5.3 6.4 3.3 9.8 8.9 10.7 14.4l0.4 3.2h36.1z"/>
		<path class="s0" d="m168.8 172.7v-4.3h-0.1c-0.8-20-7.7-37.2-19.9-49.7-14.2-14.7-36.5-22.4-62.2-22.4-22.4 0-41.5 9.4-51 19.8v-65.3h-34.9v192.8h34.9v-13.8c12.5 11.4 31.3 17.2 52.1 17.2 22.5 0 46.8-5.4 61.2-20.3 12.1-12.6 19-29.7 19.8-49.4h0.1v-2.4-2zm-84.6 47.1c-10.2 0-17.9-1.9-25.9-5.8-15.2-7.3-22.7-23.6-22.7-41.3 0-21.3 12.1-41.8 32.1-46.4 5.5-1.2 10.2-1.9 16.5-1.9 14.7 0 27 4.5 35.7 12.8 8.7 8.3 13.3 21.8 13.3 35.8 0 28-19.7 46.9-48.9 46.9"/>
		<path class="s0" d="m995.8 172.8v-4.3h-0.1c-1-18.9-8.3-36.3-20.5-49-14.8-15.4-38.5-23.4-64-23.4-25.6 0-48.1 8-62.8 23.3-12.3 12.8-19.6 30.2-20.6 49.1h-0.1v2.5 1.9 4.5h0.1c1 18.8 8.3 33.5 20.7 46.2 12.6 13 31.4 20.9 52.3 23 0.2 0 0.5 0 0.7 0.1 1.2 0.1 2.5 0.2 3.8 0.2 0.3 0 0.6 0.1 1 0.1 1.6 0.1 3.2 0.1 4.9 0.1q0.2 0 0.5 0c1.4 0 4.1 0 5.5-0.1 0.6 0 1.1-0.1 1.7-0.1 1 0 2.1-0.1 3.1-0.2q0.6-0.1 1.2-0.2 1.8-0.1 3.6-0.4 0.1 0 0.3 0c19-2.7 36.2-10.4 48-22.5 12.8-13.2 20.2-28.9 20.7-48.5v-1.8l0.1-0.1v-0.3c0 0 0-0.1-0.1-0.1zm-34.7 5.6v0.2c-2.4 24.3-22.5 40.9-49.9 41.3-27.4-0.4-46.4-17-48.9-41.4-0.7-5.5-0.4-14.7 1.7-21.8v-0.1l0.2-0.4c5.3-19.7 21.7-32.5 46.9-32.5 25.3 0 43.1 13 48.3 33v0.1c2.2 7 2.4 16.1 1.7 21.6z"/>
		<path class="s0" d="m1158.9 113.6c-10.6-10.8-29-16.4-47.8-16.4-12.6 0-25.5 1.1-42.8 10.1-5.7 2.9-11.8 8-15.9 12.4v-19.8h-35.3v143.9h35.3v-74.4c0-8.1 1.7-16.3 5.1-22.2 3.4-5.9 10.3-11.9 16.5-15.1 11.4-5.9 22.1-7.3 30.5-7.3 11.6 0 19.3 3 25.1 9.2 5.8 6.1 9.9 15.4 9.9 27.6v82.2h35.3v-85c0-19.1-5.4-34.3-15.9-45.2z"/>
		<path class="s0" d="m467.8 216.1c-10.2 2.7-18.9 2.8-21 2.8h-1.2c-17.8 0-17.7-7.1-17.7-13.3v-76.4h46.5v-29.2h-46.5v-49.1h-34.9v49.2h-37.3v29.1h37.3v79.4c0 13.2 4.6 21 13.8 28.1 8.9 7 21.7 10.5 38.1 10.5h0.2c2.1 0 26.5-0.5 38.8-6.4l2.9-1.5-15.8-24c0 0-3.1 0.8-3.2 0.8z"/>
		<path class="s0" d="m224.6 177.6h126.9v-2.5c0-0.9 0-1.8 0-2.2-0.6-17.8-4-37.7-20.7-54.3-14.4-14.4-39.4-22.6-62.5-22.6-14.7 0-27.9 2.7-39.2 8-4.3 2-8.5 4.5-12.3 7.4-1.4 1.1-2.8 2.2-4 3.2-3.1 2.8-6 5.9-8.6 9.2-0.7 0.9-1.3 1.7-1.9 2.5-2.5 3.6-4.6 7.3-6.4 11.2-4.3 9.2-6.8 19.9-7.3 31h-0.1v2.4l-0.1 2v4.5h0.2c0 0.2 0 0.4 0 0.6v1.1q0.1 0.7 0.1 1.5c0 0.4 0.1 0.9 0.2 1.4l0.1 1c0 0.4 0.1 0.8 0.1 1.1 0.1 0.6 0.2 1.2 0.3 1.8l0.1 1c0 0.2 0.1 0.6 0.2 0.9 0.1 0.7 0.2 1.4 0.4 2.1l0.1 0.7c0 0.2 0.1 0.4 0.2 0.7 0.2 0.9 0.4 1.8 0.6 2.6l0.1 0.3q0 0.3 0.1 0.6 0.4 1.5 0.8 2.8l0.1 0.2c0 0 0 0.3 0.1 0.5 0.3 1 0.7 2.1 0.9 2.8l0.2 0.5c0.4 1 0.8 1.9 1.2 3l0.1 0.4c0.4 1 0.8 2 1.4 3.1v0.1q0.8 1.5 1.6 3.1v0.1c13.2 24.7 38.7 35.8 71.8 35.8 33.1 0 62.1-10.1 78.4-33.8l1.7-2.4-25.6-16.2-1.7 1.8c-13.1 14.1-23.9 23.3-52.8 23.3h-1c-11.9-0.1-18.9-3.4-26.9-9.5-0.6-0.4-1.1-0.8-1.7-1.3-0.5-0.4-1-0.9-1.6-1.3q-0.7-0.7-1.3-1.4h-0.1c-0.5-0.5-0.9-1-1.4-1.4v-0.1c-0.5-0.6-0.9-1-1.3-1.5v-0.1q-0.6-0.8-1.1-1.4l-0.2-0.3c-0.4-0.5-0.7-0.9-1-1.4l-0.2-0.3q-0.5-0.7-0.9-1.4l-0.2-0.4q-0.4-0.7-0.8-1.4l-0.2-0.4c-0.2-0.5-0.5-0.9-0.7-1.4l-0.3-0.6v-0.1c-0.2-0.4-0.4-0.8-0.6-1.2l-0.3-0.8c-0.1-0.4-0.3-0.7-0.4-1.1-0.1-0.1-0.1-0.3-0.2-0.4l-0.2-0.6v-0.1c-0.1-0.3-0.2-0.5-0.3-0.9-0.1-0.1-0.1-0.2-0.2-0.4v-0.1l-0.2-0.7v-0.1c-0.1-0.2-0.2-0.5-0.3-0.7q0-0.3-0.1-0.6l-0.2-0.7q-0.1-0.4-0.2-0.8c-0.1-0.2-0.1-0.4-0.1-0.6l-0.2-0.9c-0.1-0.2-0.1-0.4-0.2-0.6 0-0.3-0.1-0.6-0.1-0.9 0 0-0.2-1.5-0.2-3.2v-1.2q0 0 0.1 0zm4.4-30.6c1-2.2 2.2-4.3 3.6-6.2 0.3-0.5 0.7-1.1 1.2-1.6q1-1.3 2.2-2.6 1.2-1.2 2.5-2.3c0.6-0.5 1.1-0.9 1.6-1.3 0.3-0.2 0.5-0.4 0.8-0.6 1.9-1.4 4.1-2.7 6.4-3.8 0.6-0.2 1.2-0.5 1.9-0.8 6.5-2.7 10.6-4 19.2-4 16.6 0 30.4 6.6 38.8 18.5 2.2 3.3 4.2 8.6 5.6 12.6q0.2 0.6 0.5 1.2h-86.9c0.1-0.4 0.2-0.8 0.2-1.2 0.6-2.5 1.6-6.2 2.4-7.9z"/>
		<path class="s1" d="m1388.9 0v129.4l4.5-8c49.8-70.4 156.2-19 135.3 66.2-14.4 58.5-95.2 79.1-131.3 30.9-3.2-4.3-5.2-9.2-8.4-13.4v36.2h-14.8v-241.3c0 0 14.8 0 14.7 0zm56.9 103.4c-43.3 3.8-67.2 48.5-52.2 88 21 55.1 105.4 51.4 120.4-6.3 11.9-45.7-20.9-85.7-68.2-81.7z"/>
		<path class="s1" d="m1337.3 205.2l-4.2 7.6c-46.1 65.6-147 24.3-137.2-56.2 8.2-67.3 93.7-92.9 134.9-39.1l6.5 11.2v-36.2h15.4v148.9h-15.4zm-70.5-101.7c-43.9 3.6-67.3 50.2-51.2 89.6 22 53.7 104.6 48.7 119.4-8 11.9-45.8-21-85.5-68.2-81.6z"/>
	</g>
</svg>