<svg version="1.2" baseProfile="tiny-ps" xmlns="http://www.w3.org/2000/svg" viewBox="0 0 1800 326" width="1800" height="326">
	<title>L'Oréal_logo-svg</title>
	<style>
		tspan { white-space:pre }
		.shp0 { fill: #000000 } 
	</style>
	<path id="polyline3" class="shp0" d="M979.27 303.54L1211.55 303.54L1211.55 275.19L1019.09 275.19L1019.09 184.47L1163.65 184.47L1163.65 155.78L1019.09 155.78L1019.09 72.2L1211.55 72.2L1211.55 43.96L979.27 43.96L979.27 303.54" />
	<path id="polyline5" class="shp0" d="M1099.98 1.99L1068.53 37.3L1167.25 1.99L1099.98 1.99" />
	<path id="polyline7" class="shp0" d="M1601.49 275.19L1601.49 43.96L1565.18 43.96L1565.18 303.54L1800 303.54L1800 275.19L1601.49 275.19" />
	<path id="path9" fill-rule="evenodd" class="shp0" d="M1412.9 43.96L1545.1 303.54L1500.91 303.54L1466.83 236.35L1308.41 236.35L1274.62 303.54L1229.97 303.54L1362.06 43.96L1412.9 43.96ZM1450.35 203.81L1387.37 79.83L1325.13 203.81L1450.35 203.81Z" />
	<path id="path11" fill-rule="evenodd" class="shp0" d="M932.86 303.54L885.82 303.54L807.4 194.65L700.81 194.65L700.81 303.54L663.48 303.54L663.48 43.96L827.21 43.96C883.4 43.96 914.67 72.68 918.22 119.06C918.52 134.88 912.74 179.12 853.22 194.99C876.43 230.25 932.86 303.54 932.86 303.54ZM872.34 142.94C878.75 132.44 881.24 117.03 877.36 105.29C871.51 88.16 855.25 74.68 826.34 74.68L700.81 74.68L700.81 163.98L822.12 163.98C841.92 163.98 861.85 160.28 872.34 142.94Z" />
	<path id="path13" fill-rule="evenodd" class="shp0" d="M616.25 164.08C616.25 259.62 536.96 325.43 439.17 325.43C341.32 325.43 262 258.66 262 164.08C262 74.23 333.81 0 439.17 0C543.55 0 616.25 74.23 616.25 164.08ZM573.66 164.16C573.66 93.75 517.34 32.41 440.73 32.41C362.18 32.41 304.95 93.75 304.95 164.16C304.95 234.68 365.01 293.21 437.91 293.21C510.77 293.21 573.66 234.68 573.66 164.16Z" />
	<path id="polyline15" class="shp0" d="M167.99 135.79L194.92 135.79L243.81 43.96L204.47 43.96L167.99 135.79" />
	<path id="polyline17" class="shp0" d="M36.33 275.19L36.33 43.96L0 43.96L0 303.54L234.81 303.54L234.81 275.19L36.33 275.19" />
</svg>